<?xml version="1.0" encoding="UTF-8"?>
<svg xmlns="http://www.w3.org/2000/svg" xmlns:xlink="http://www.w3.org/1999/xlink" style="isolation:isolate" viewBox="0 0 200 200" width="200" height="200">
  <rect x='0' y='0' width='200' height='200' fill='rgb(255,255,255,0)'/>
  <circle cx="10" cy="10" r="1" fill="#C93F4A"/>
  <circle cx="10" cy="30" r="1" fill="#C93F4A"/>
  <circle cx="10" cy="50" r="1" fill="#C93F4A"/>
  <circle cx="10" cy="70" r="1" fill="#C93F4A"/>
  <circle cx="10" cy="90" r="1" fill="#C93F4A"/>
  <circle cx="10" cy="110" r="1" fill="#C93F4A"/>
  <circle cx="10" cy="130" r="1" fill="#C93F4A"/>
  <circle cx="10" cy="150" r="1" fill="#C93F4A"/>
  <circle cx="10" cy="170" r="1" fill="#C93F4A"/>
  <circle cx="10" cy="190" r="1" fill="#C93F4A"/>
  <circle cx="30" cy="10" r="1" fill="#C93F4A"/>
  <circle cx="30" cy="30" r="1" fill="#C93F4A"/>
  <circle cx="30" cy="50" r="1" fill="#C93F4A"/>
  <circle cx="30" cy="70" r="1" fill="#C93F4A"/>
  <circle cx="30" cy="90" r="1" fill="#C93F4A"/>
  <circle cx="30" cy="110" r="1" fill="#C93F4A"/>
  <circle cx="30" cy="130" r="1" fill="#C93F4A"/>
  <circle cx="30" cy="150" r="1" fill="#C93F4A"/>
  <circle cx="30" cy="170" r="1" fill="#C93F4A"/>
  <circle cx="30" cy="190" r="1" fill="#C93F4A"/>
  <circle cx="50" cy="10" r="1" fill="#C93F4A"/>
  <circle cx="50" cy="30" r="1" fill="#C93F4A"/>
  <circle cx="50" cy="50" r="1" fill="#C93F4A"/>
  <circle cx="50" cy="70" r="1" fill="#C93F4A"/>
  <circle cx="50" cy="90" r="1" fill="#C93F4A"/>
  <circle cx="50" cy="110" r="1" fill="#C93F4A"/>
  <circle cx="50" cy="130" r="1" fill="#C93F4A"/>
  <circle cx="50" cy="150" r="1" fill="#C93F4A"/>
  <circle cx="50" cy="170" r="1" fill="#C93F4A"/>
  <circle cx="50" cy="190" r="1" fill="#C93F4A"/>
  <circle cx="70" cy="10" r="1" fill="#C93F4A"/>
  <circle cx="70" cy="30" r="1" fill="#C93F4A"/>
  <circle cx="70" cy="50" r="1" fill="#C93F4A"/>
  <circle cx="70" cy="70" r="1" fill="#C93F4A"/>
  <circle cx="70" cy="90" r="1" fill="#C93F4A"/>
  <circle cx="70" cy="110" r="1" fill="#C93F4A"/>
  <circle cx="70" cy="130" r="1" fill="#C93F4A"/>
  <circle cx="70" cy="150" r="1" fill="#C93F4A"/>
  <circle cx="70" cy="170" r="1" fill="#C93F4A"/>
  <circle cx="70" cy="190" r="1" fill="#C93F4A"/>
  <circle cx="90" cy="10" r="1" fill="#C93F4A"/>
  <circle cx="90" cy="30" r="1" fill="#C93F4A"/>
  <circle cx="90" cy="50" r="1" fill="#C93F4A"/>
  <circle cx="90" cy="70" r="1" fill="#C93F4A"/>
  <circle cx="90" cy="90" r="1" fill="#C93F4A"/>
  <circle cx="90" cy="110" r="1" fill="#C93F4A"/>
  <circle cx="90" cy="130" r="1" fill="#C93F4A"/>
  <circle cx="90" cy="150" r="1" fill="#C93F4A"/>
  <circle cx="90" cy="170" r="1" fill="#C93F4A"/>
  <circle cx="90" cy="190" r="1" fill="#C93F4A"/>
  <circle cx="110" cy="10" r="1" fill="#C93F4A"/>
  <circle cx="110" cy="30" r="1" fill="#C93F4A"/>
  <circle cx="110" cy="50" r="1" fill="#C93F4A"/>
  <circle cx="110" cy="70" r="1" fill="#C93F4A"/>
  <circle cx="110" cy="90" r="1" fill="#C93F4A"/>
  <circle cx="110" cy="110" r="1" fill="#C93F4A"/>
  <circle cx="110" cy="130" r="1" fill="#C93F4A"/>
  <circle cx="110" cy="150" r="1" fill="#C93F4A"/>
  <circle cx="110" cy="170" r="1" fill="#C93F4A"/>
  <circle cx="110" cy="190" r="1" fill="#C93F4A"/>
  <circle cx="130" cy="10" r="1" fill="#C93F4A"/>
  <circle cx="130" cy="30" r="1" fill="#C93F4A"/>
  <circle cx="130" cy="50" r="1" fill="#C93F4A"/>
  <circle cx="130" cy="70" r="1" fill="#C93F4A"/>
  <circle cx="130" cy="90" r="1" fill="#C93F4A"/>
  <circle cx="130" cy="110" r="1" fill="#C93F4A"/>
  <circle cx="130" cy="130" r="1" fill="#C93F4A"/>
  <circle cx="130" cy="150" r="1" fill="#C93F4A"/>
  <circle cx="130" cy="170" r="1" fill="#C93F4A"/>
  <circle cx="130" cy="190" r="1" fill="#C93F4A"/>
  <circle cx="150" cy="10" r="1" fill="#C93F4A"/>
  <circle cx="150" cy="30" r="1" fill="#C93F4A"/>
  <circle cx="150" cy="50" r="1" fill="#C93F4A"/>
  <circle cx="150" cy="70" r="1" fill="#C93F4A"/>
  <circle cx="150" cy="90" r="1" fill="#C93F4A"/>
  <circle cx="150" cy="110" r="1" fill="#C93F4A"/>
  <circle cx="150" cy="130" r="1" fill="#C93F4A"/>
  <circle cx="150" cy="150" r="1" fill="#C93F4A"/>
  <circle cx="150" cy="170" r="1" fill="#C93F4A"/>
  <circle cx="150" cy="190" r="1" fill="#C93F4A"/>
  <circle cx="170" cy="10" r="1" fill="#C93F4A"/>
  <circle cx="170" cy="30" r="1" fill="#C93F4A"/>
  <circle cx="170" cy="50" r="1" fill="#C93F4A"/>
  <circle cx="170" cy="70" r="1" fill="#C93F4A"/>
  <circle cx="170" cy="90" r="1" fill="#C93F4A"/>
  <circle cx="170" cy="110" r="1" fill="#C93F4A"/>
  <circle cx="170" cy="130" r="1" fill="#C93F4A"/>
  <circle cx="170" cy="150" r="1" fill="#C93F4A"/>
  <circle cx="170" cy="170" r="1" fill="#C93F4A"/>
  <circle cx="170" cy="190" r="1" fill="#C93F4A"/>
  <circle cx="190" cy="10" r="1" fill="#C93F4A"/>
  <circle cx="190" cy="30" r="1" fill="#C93F4A"/>
  <circle cx="190" cy="50" r="1" fill="#C93F4A"/>
  <circle cx="190" cy="70" r="1" fill="#C93F4A"/>
  <circle cx="190" cy="90" r="1" fill="#C93F4A"/>
  <circle cx="190" cy="110" r="1" fill="#C93F4A"/>
  <circle cx="190" cy="130" r="1" fill="#C93F4A"/>
  <circle cx="190" cy="150" r="1" fill="#C93F4A"/>
  <circle cx="190" cy="170" r="1" fill="#C93F4A"/>
  <circle cx="190" cy="190" r="1" fill="#C93F4A"/>
</svg>
