<?xml version="1.0" encoding="UTF-8"?>
<svg xmlns="http://www.w3.org/2000/svg" xmlns:xlink="http://www.w3.org/1999/xlink" style="isolation:isolate" viewBox="0 0 200 200" width="200" height="200">
  <rect x='0' y='0' width='200' height='200' fill='rgb(255,255,255,0)'/>
  <circle cx="5" cy="5" r="1" fill="#A3A4A6"/>
  <circle cx="5" cy="15" r="1" fill="#A3A4A6"/>
  <circle cx="5" cy="25" r="1" fill="#A3A4A6"/>
  <circle cx="5" cy="35" r="1" fill="#A3A4A6"/>
  <circle cx="5" cy="45" r="1" fill="#A3A4A6"/>
  <circle cx="5" cy="55" r="1" fill="#A3A4A6"/>
  <circle cx="5" cy="65" r="1" fill="#A3A4A6"/>
  <circle cx="5" cy="75" r="1" fill="#A3A4A6"/>
  <circle cx="5" cy="85" r="1" fill="#A3A4A6"/>
  <circle cx="5" cy="95" r="1" fill="#A3A4A6"/>
  <circle cx="5" cy="105" r="1" fill="#A3A4A6"/>
  <circle cx="5" cy="115" r="1" fill="#A3A4A6"/>
  <circle cx="5" cy="125" r="1" fill="#A3A4A6"/>
  <circle cx="5" cy="135" r="1" fill="#A3A4A6"/>
  <circle cx="5" cy="145" r="1" fill="#A3A4A6"/>
  <circle cx="5" cy="155" r="1" fill="#A3A4A6"/>
  <circle cx="5" cy="165" r="1" fill="#A3A4A6"/>
  <circle cx="5" cy="175" r="1" fill="#A3A4A6"/>
  <circle cx="5" cy="185" r="1" fill="#A3A4A6"/>
  <circle cx="5" cy="195" r="1" fill="#A3A4A6"/>
  <circle cx="15" cy="5" r="1" fill="#A3A4A6"/>
  <circle cx="15" cy="15" r="1" fill="#A3A4A6"/>
  <circle cx="15" cy="25" r="1" fill="#A3A4A6"/>
  <circle cx="15" cy="35" r="1" fill="#A3A4A6"/>
  <circle cx="15" cy="45" r="1" fill="#A3A4A6"/>
  <circle cx="15" cy="55" r="1" fill="#A3A4A6"/>
  <circle cx="15" cy="65" r="1" fill="#A3A4A6"/>
  <circle cx="15" cy="75" r="1" fill="#A3A4A6"/>
  <circle cx="15" cy="85" r="1" fill="#A3A4A6"/>
  <circle cx="15" cy="95" r="1" fill="#A3A4A6"/>
  <circle cx="15" cy="105" r="1" fill="#A3A4A6"/>
  <circle cx="15" cy="115" r="1" fill="#A3A4A6"/>
  <circle cx="15" cy="125" r="1" fill="#A3A4A6"/>
  <circle cx="15" cy="135" r="1" fill="#A3A4A6"/>
  <circle cx="15" cy="145" r="1" fill="#A3A4A6"/>
  <circle cx="15" cy="155" r="1" fill="#A3A4A6"/>
  <circle cx="15" cy="165" r="1" fill="#A3A4A6"/>
  <circle cx="15" cy="175" r="1" fill="#A3A4A6"/>
  <circle cx="15" cy="185" r="1" fill="#A3A4A6"/>
  <circle cx="15" cy="195" r="1" fill="#A3A4A6"/>
  <circle cx="25" cy="5" r="1" fill="#A3A4A6"/>
  <circle cx="25" cy="15" r="1" fill="#A3A4A6"/>
  <circle cx="25" cy="25" r="1" fill="#A3A4A6"/>
  <circle cx="25" cy="35" r="1" fill="#A3A4A6"/>
  <circle cx="25" cy="45" r="1" fill="#A3A4A6"/>
  <circle cx="25" cy="55" r="1" fill="#A3A4A6"/>
  <circle cx="25" cy="65" r="1" fill="#A3A4A6"/>
  <circle cx="25" cy="75" r="1" fill="#A3A4A6"/>
  <circle cx="25" cy="85" r="1" fill="#A3A4A6"/>
  <circle cx="25" cy="95" r="1" fill="#A3A4A6"/>
  <circle cx="25" cy="105" r="1" fill="#A3A4A6"/>
  <circle cx="25" cy="115" r="1" fill="#A3A4A6"/>
  <circle cx="25" cy="125" r="1" fill="#A3A4A6"/>
  <circle cx="25" cy="135" r="1" fill="#A3A4A6"/>
  <circle cx="25" cy="145" r="1" fill="#A3A4A6"/>
  <circle cx="25" cy="155" r="1" fill="#A3A4A6"/>
  <circle cx="25" cy="165" r="1" fill="#A3A4A6"/>
  <circle cx="25" cy="175" r="1" fill="#A3A4A6"/>
  <circle cx="25" cy="185" r="1" fill="#A3A4A6"/>
  <circle cx="25" cy="195" r="1" fill="#A3A4A6"/>
  <circle cx="35" cy="5" r="1" fill="#A3A4A6"/>
  <circle cx="35" cy="15" r="1" fill="#A3A4A6"/>
  <circle cx="35" cy="25" r="1" fill="#A3A4A6"/>
  <circle cx="35" cy="35" r="1" fill="#A3A4A6"/>
  <circle cx="35" cy="45" r="1" fill="#A3A4A6"/>
  <circle cx="35" cy="55" r="1" fill="#A3A4A6"/>
  <circle cx="35" cy="65" r="1" fill="#A3A4A6"/>
  <circle cx="35" cy="75" r="1" fill="#A3A4A6"/>
  <circle cx="35" cy="85" r="1" fill="#A3A4A6"/>
  <circle cx="35" cy="95" r="1" fill="#A3A4A6"/>
  <circle cx="35" cy="105" r="1" fill="#A3A4A6"/>
  <circle cx="35" cy="115" r="1" fill="#A3A4A6"/>
  <circle cx="35" cy="125" r="1" fill="#A3A4A6"/>
  <circle cx="35" cy="135" r="1" fill="#A3A4A6"/>
  <circle cx="35" cy="145" r="1" fill="#A3A4A6"/>
  <circle cx="35" cy="155" r="1" fill="#A3A4A6"/>
  <circle cx="35" cy="165" r="1" fill="#A3A4A6"/>
  <circle cx="35" cy="175" r="1" fill="#A3A4A6"/>
  <circle cx="35" cy="185" r="1" fill="#A3A4A6"/>
  <circle cx="35" cy="195" r="1" fill="#A3A4A6"/>
  <circle cx="45" cy="5" r="1" fill="#A3A4A6"/>
  <circle cx="45" cy="15" r="1" fill="#A3A4A6"/>
  <circle cx="45" cy="25" r="1" fill="#A3A4A6"/>
  <circle cx="45" cy="35" r="1" fill="#A3A4A6"/>
  <circle cx="45" cy="45" r="1" fill="#A3A4A6"/>
  <circle cx="45" cy="55" r="1" fill="#A3A4A6"/>
  <circle cx="45" cy="65" r="1" fill="#A3A4A6"/>
  <circle cx="45" cy="75" r="1" fill="#A3A4A6"/>
  <circle cx="45" cy="85" r="1" fill="#A3A4A6"/>
  <circle cx="45" cy="95" r="1" fill="#A3A4A6"/>
  <circle cx="45" cy="105" r="1" fill="#A3A4A6"/>
  <circle cx="45" cy="115" r="1" fill="#A3A4A6"/>
  <circle cx="45" cy="125" r="1" fill="#A3A4A6"/>
  <circle cx="45" cy="135" r="1" fill="#A3A4A6"/>
  <circle cx="45" cy="145" r="1" fill="#A3A4A6"/>
  <circle cx="45" cy="155" r="1" fill="#A3A4A6"/>
  <circle cx="45" cy="165" r="1" fill="#A3A4A6"/>
  <circle cx="45" cy="175" r="1" fill="#A3A4A6"/>
  <circle cx="45" cy="185" r="1" fill="#A3A4A6"/>
  <circle cx="45" cy="195" r="1" fill="#A3A4A6"/>
  <circle cx="55" cy="5" r="1" fill="#A3A4A6"/>
  <circle cx="55" cy="15" r="1" fill="#A3A4A6"/>
  <circle cx="55" cy="25" r="1" fill="#A3A4A6"/>
  <circle cx="55" cy="35" r="1" fill="#A3A4A6"/>
  <circle cx="55" cy="45" r="1" fill="#A3A4A6"/>
  <circle cx="55" cy="55" r="1" fill="#A3A4A6"/>
  <circle cx="55" cy="65" r="1" fill="#A3A4A6"/>
  <circle cx="55" cy="75" r="1" fill="#A3A4A6"/>
  <circle cx="55" cy="85" r="1" fill="#A3A4A6"/>
  <circle cx="55" cy="95" r="1" fill="#A3A4A6"/>
  <circle cx="55" cy="105" r="1" fill="#A3A4A6"/>
  <circle cx="55" cy="115" r="1" fill="#A3A4A6"/>
  <circle cx="55" cy="125" r="1" fill="#A3A4A6"/>
  <circle cx="55" cy="135" r="1" fill="#A3A4A6"/>
  <circle cx="55" cy="145" r="1" fill="#A3A4A6"/>
  <circle cx="55" cy="155" r="1" fill="#A3A4A6"/>
  <circle cx="55" cy="165" r="1" fill="#A3A4A6"/>
  <circle cx="55" cy="175" r="1" fill="#A3A4A6"/>
  <circle cx="55" cy="185" r="1" fill="#A3A4A6"/>
  <circle cx="55" cy="195" r="1" fill="#A3A4A6"/>
  <circle cx="65" cy="5" r="1" fill="#A3A4A6"/>
  <circle cx="65" cy="15" r="1" fill="#A3A4A6"/>
  <circle cx="65" cy="25" r="1" fill="#A3A4A6"/>
  <circle cx="65" cy="35" r="1" fill="#A3A4A6"/>
  <circle cx="65" cy="45" r="1" fill="#A3A4A6"/>
  <circle cx="65" cy="55" r="1" fill="#A3A4A6"/>
  <circle cx="65" cy="65" r="1" fill="#A3A4A6"/>
  <circle cx="65" cy="75" r="1" fill="#A3A4A6"/>
  <circle cx="65" cy="85" r="1" fill="#A3A4A6"/>
  <circle cx="65" cy="95" r="1" fill="#A3A4A6"/>
  <circle cx="65" cy="105" r="1" fill="#A3A4A6"/>
  <circle cx="65" cy="115" r="1" fill="#A3A4A6"/>
  <circle cx="65" cy="125" r="1" fill="#A3A4A6"/>
  <circle cx="65" cy="135" r="1" fill="#A3A4A6"/>
  <circle cx="65" cy="145" r="1" fill="#A3A4A6"/>
  <circle cx="65" cy="155" r="1" fill="#A3A4A6"/>
  <circle cx="65" cy="165" r="1" fill="#A3A4A6"/>
  <circle cx="65" cy="175" r="1" fill="#A3A4A6"/>
  <circle cx="65" cy="185" r="1" fill="#A3A4A6"/>
  <circle cx="65" cy="195" r="1" fill="#A3A4A6"/>
  <circle cx="75" cy="5" r="1" fill="#A3A4A6"/>
  <circle cx="75" cy="15" r="1" fill="#A3A4A6"/>
  <circle cx="75" cy="25" r="1" fill="#A3A4A6"/>
  <circle cx="75" cy="35" r="1" fill="#A3A4A6"/>
  <circle cx="75" cy="45" r="1" fill="#A3A4A6"/>
  <circle cx="75" cy="55" r="1" fill="#A3A4A6"/>
  <circle cx="75" cy="65" r="1" fill="#A3A4A6"/>
  <circle cx="75" cy="75" r="1" fill="#A3A4A6"/>
  <circle cx="75" cy="85" r="1" fill="#A3A4A6"/>
  <circle cx="75" cy="95" r="1" fill="#A3A4A6"/>
  <circle cx="75" cy="105" r="1" fill="#A3A4A6"/>
  <circle cx="75" cy="115" r="1" fill="#A3A4A6"/>
  <circle cx="75" cy="125" r="1" fill="#A3A4A6"/>
  <circle cx="75" cy="135" r="1" fill="#A3A4A6"/>
  <circle cx="75" cy="145" r="1" fill="#A3A4A6"/>
  <circle cx="75" cy="155" r="1" fill="#A3A4A6"/>
  <circle cx="75" cy="165" r="1" fill="#A3A4A6"/>
  <circle cx="75" cy="175" r="1" fill="#A3A4A6"/>
  <circle cx="75" cy="185" r="1" fill="#A3A4A6"/>
  <circle cx="75" cy="195" r="1" fill="#A3A4A6"/>
  <circle cx="85" cy="5" r="1" fill="#A3A4A6"/>
  <circle cx="85" cy="15" r="1" fill="#A3A4A6"/>
  <circle cx="85" cy="25" r="1" fill="#A3A4A6"/>
  <circle cx="85" cy="35" r="1" fill="#A3A4A6"/>
  <circle cx="85" cy="45" r="1" fill="#A3A4A6"/>
  <circle cx="85" cy="55" r="1" fill="#A3A4A6"/>
  <circle cx="85" cy="65" r="1" fill="#A3A4A6"/>
  <circle cx="85" cy="75" r="1" fill="#A3A4A6"/>
  <circle cx="85" cy="85" r="1" fill="#A3A4A6"/>
  <circle cx="85" cy="95" r="1" fill="#A3A4A6"/>
  <circle cx="85" cy="105" r="1" fill="#A3A4A6"/>
  <circle cx="85" cy="115" r="1" fill="#A3A4A6"/>
  <circle cx="85" cy="125" r="1" fill="#A3A4A6"/>
  <circle cx="85" cy="135" r="1" fill="#A3A4A6"/>
  <circle cx="85" cy="145" r="1" fill="#A3A4A6"/>
  <circle cx="85" cy="155" r="1" fill="#A3A4A6"/>
  <circle cx="85" cy="165" r="1" fill="#A3A4A6"/>
  <circle cx="85" cy="175" r="1" fill="#A3A4A6"/>
  <circle cx="85" cy="185" r="1" fill="#A3A4A6"/>
  <circle cx="85" cy="195" r="1" fill="#A3A4A6"/>
  <circle cx="95" cy="5" r="1" fill="#A3A4A6"/>
  <circle cx="95" cy="15" r="1" fill="#A3A4A6"/>
  <circle cx="95" cy="25" r="1" fill="#A3A4A6"/>
  <circle cx="95" cy="35" r="1" fill="#A3A4A6"/>
  <circle cx="95" cy="45" r="1" fill="#A3A4A6"/>
  <circle cx="95" cy="55" r="1" fill="#A3A4A6"/>
  <circle cx="95" cy="65" r="1" fill="#A3A4A6"/>
  <circle cx="95" cy="75" r="1" fill="#A3A4A6"/>
  <circle cx="95" cy="85" r="1" fill="#A3A4A6"/>
  <circle cx="95" cy="95" r="1" fill="#A3A4A6"/>
  <circle cx="95" cy="105" r="1" fill="#A3A4A6"/>
  <circle cx="95" cy="115" r="1" fill="#A3A4A6"/>
  <circle cx="95" cy="125" r="1" fill="#A3A4A6"/>
  <circle cx="95" cy="135" r="1" fill="#A3A4A6"/>
  <circle cx="95" cy="145" r="1" fill="#A3A4A6"/>
  <circle cx="95" cy="155" r="1" fill="#A3A4A6"/>
  <circle cx="95" cy="165" r="1" fill="#A3A4A6"/>
  <circle cx="95" cy="175" r="1" fill="#A3A4A6"/>
  <circle cx="95" cy="185" r="1" fill="#A3A4A6"/>
  <circle cx="95" cy="195" r="1" fill="#A3A4A6"/>
  <circle cx="105" cy="5" r="1" fill="#A3A4A6"/>
  <circle cx="105" cy="15" r="1" fill="#A3A4A6"/>
  <circle cx="105" cy="25" r="1" fill="#A3A4A6"/>
  <circle cx="105" cy="35" r="1" fill="#A3A4A6"/>
  <circle cx="105" cy="45" r="1" fill="#A3A4A6"/>
  <circle cx="105" cy="55" r="1" fill="#A3A4A6"/>
  <circle cx="105" cy="65" r="1" fill="#A3A4A6"/>
  <circle cx="105" cy="75" r="1" fill="#A3A4A6"/>
  <circle cx="105" cy="85" r="1" fill="#A3A4A6"/>
  <circle cx="105" cy="95" r="1" fill="#A3A4A6"/>
  <circle cx="105" cy="105" r="1" fill="#A3A4A6"/>
  <circle cx="105" cy="115" r="1" fill="#A3A4A6"/>
  <circle cx="105" cy="125" r="1" fill="#A3A4A6"/>
  <circle cx="105" cy="135" r="1" fill="#A3A4A6"/>
  <circle cx="105" cy="145" r="1" fill="#A3A4A6"/>
  <circle cx="105" cy="155" r="1" fill="#A3A4A6"/>
  <circle cx="105" cy="165" r="1" fill="#A3A4A6"/>
  <circle cx="105" cy="175" r="1" fill="#A3A4A6"/>
  <circle cx="105" cy="185" r="1" fill="#A3A4A6"/>
  <circle cx="105" cy="195" r="1" fill="#A3A4A6"/>
  <circle cx="115" cy="5" r="1" fill="#A3A4A6"/>
  <circle cx="115" cy="15" r="1" fill="#A3A4A6"/>
  <circle cx="115" cy="25" r="1" fill="#A3A4A6"/>
  <circle cx="115" cy="35" r="1" fill="#A3A4A6"/>
  <circle cx="115" cy="45" r="1" fill="#A3A4A6"/>
  <circle cx="115" cy="55" r="1" fill="#A3A4A6"/>
  <circle cx="115" cy="65" r="1" fill="#A3A4A6"/>
  <circle cx="115" cy="75" r="1" fill="#A3A4A6"/>
  <circle cx="115" cy="85" r="1" fill="#A3A4A6"/>
  <circle cx="115" cy="95" r="1" fill="#A3A4A6"/>
  <circle cx="115" cy="105" r="1" fill="#A3A4A6"/>
  <circle cx="115" cy="115" r="1" fill="#A3A4A6"/>
  <circle cx="115" cy="125" r="1" fill="#A3A4A6"/>
  <circle cx="115" cy="135" r="1" fill="#A3A4A6"/>
  <circle cx="115" cy="145" r="1" fill="#A3A4A6"/>
  <circle cx="115" cy="155" r="1" fill="#A3A4A6"/>
  <circle cx="115" cy="165" r="1" fill="#A3A4A6"/>
  <circle cx="115" cy="175" r="1" fill="#A3A4A6"/>
  <circle cx="115" cy="185" r="1" fill="#A3A4A6"/>
  <circle cx="115" cy="195" r="1" fill="#A3A4A6"/>
  <circle cx="125" cy="5" r="1" fill="#A3A4A6"/>
  <circle cx="125" cy="15" r="1" fill="#A3A4A6"/>
  <circle cx="125" cy="25" r="1" fill="#A3A4A6"/>
  <circle cx="125" cy="35" r="1" fill="#A3A4A6"/>
  <circle cx="125" cy="45" r="1" fill="#A3A4A6"/>
  <circle cx="125" cy="55" r="1" fill="#A3A4A6"/>
  <circle cx="125" cy="65" r="1" fill="#A3A4A6"/>
  <circle cx="125" cy="75" r="1" fill="#A3A4A6"/>
  <circle cx="125" cy="85" r="1" fill="#A3A4A6"/>
  <circle cx="125" cy="95" r="1" fill="#A3A4A6"/>
  <circle cx="125" cy="105" r="1" fill="#A3A4A6"/>
  <circle cx="125" cy="115" r="1" fill="#A3A4A6"/>
  <circle cx="125" cy="125" r="1" fill="#A3A4A6"/>
  <circle cx="125" cy="135" r="1" fill="#A3A4A6"/>
  <circle cx="125" cy="145" r="1" fill="#A3A4A6"/>
  <circle cx="125" cy="155" r="1" fill="#A3A4A6"/>
  <circle cx="125" cy="165" r="1" fill="#A3A4A6"/>
  <circle cx="125" cy="175" r="1" fill="#A3A4A6"/>
  <circle cx="125" cy="185" r="1" fill="#A3A4A6"/>
  <circle cx="125" cy="195" r="1" fill="#A3A4A6"/>
  <circle cx="135" cy="5" r="1" fill="#A3A4A6"/>
  <circle cx="135" cy="15" r="1" fill="#A3A4A6"/>
  <circle cx="135" cy="25" r="1" fill="#A3A4A6"/>
  <circle cx="135" cy="35" r="1" fill="#A3A4A6"/>
  <circle cx="135" cy="45" r="1" fill="#A3A4A6"/>
  <circle cx="135" cy="55" r="1" fill="#A3A4A6"/>
  <circle cx="135" cy="65" r="1" fill="#A3A4A6"/>
  <circle cx="135" cy="75" r="1" fill="#A3A4A6"/>
  <circle cx="135" cy="85" r="1" fill="#A3A4A6"/>
  <circle cx="135" cy="95" r="1" fill="#A3A4A6"/>
  <circle cx="135" cy="105" r="1" fill="#A3A4A6"/>
  <circle cx="135" cy="115" r="1" fill="#A3A4A6"/>
  <circle cx="135" cy="125" r="1" fill="#A3A4A6"/>
  <circle cx="135" cy="135" r="1" fill="#A3A4A6"/>
  <circle cx="135" cy="145" r="1" fill="#A3A4A6"/>
  <circle cx="135" cy="155" r="1" fill="#A3A4A6"/>
  <circle cx="135" cy="165" r="1" fill="#A3A4A6"/>
  <circle cx="135" cy="175" r="1" fill="#A3A4A6"/>
  <circle cx="135" cy="185" r="1" fill="#A3A4A6"/>
  <circle cx="135" cy="195" r="1" fill="#A3A4A6"/>
  <circle cx="145" cy="5" r="1" fill="#A3A4A6"/>
  <circle cx="145" cy="15" r="1" fill="#A3A4A6"/>
  <circle cx="145" cy="25" r="1" fill="#A3A4A6"/>
  <circle cx="145" cy="35" r="1" fill="#A3A4A6"/>
  <circle cx="145" cy="45" r="1" fill="#A3A4A6"/>
  <circle cx="145" cy="55" r="1" fill="#A3A4A6"/>
  <circle cx="145" cy="65" r="1" fill="#A3A4A6"/>
  <circle cx="145" cy="75" r="1" fill="#A3A4A6"/>
  <circle cx="145" cy="85" r="1" fill="#A3A4A6"/>
  <circle cx="145" cy="95" r="1" fill="#A3A4A6"/>
  <circle cx="145" cy="105" r="1" fill="#A3A4A6"/>
  <circle cx="145" cy="115" r="1" fill="#A3A4A6"/>
  <circle cx="145" cy="125" r="1" fill="#A3A4A6"/>
  <circle cx="145" cy="135" r="1" fill="#A3A4A6"/>
  <circle cx="145" cy="145" r="1" fill="#A3A4A6"/>
  <circle cx="145" cy="155" r="1" fill="#A3A4A6"/>
  <circle cx="145" cy="165" r="1" fill="#A3A4A6"/>
  <circle cx="145" cy="175" r="1" fill="#A3A4A6"/>
  <circle cx="145" cy="185" r="1" fill="#A3A4A6"/>
  <circle cx="145" cy="195" r="1" fill="#A3A4A6"/>
  <circle cx="155" cy="5" r="1" fill="#A3A4A6"/>
  <circle cx="155" cy="15" r="1" fill="#A3A4A6"/>
  <circle cx="155" cy="25" r="1" fill="#A3A4A6"/>
  <circle cx="155" cy="35" r="1" fill="#A3A4A6"/>
  <circle cx="155" cy="45" r="1" fill="#A3A4A6"/>
  <circle cx="155" cy="55" r="1" fill="#A3A4A6"/>
  <circle cx="155" cy="65" r="1" fill="#A3A4A6"/>
  <circle cx="155" cy="75" r="1" fill="#A3A4A6"/>
  <circle cx="155" cy="85" r="1" fill="#A3A4A6"/>
  <circle cx="155" cy="95" r="1" fill="#A3A4A6"/>
  <circle cx="155" cy="105" r="1" fill="#A3A4A6"/>
  <circle cx="155" cy="115" r="1" fill="#A3A4A6"/>
  <circle cx="155" cy="125" r="1" fill="#A3A4A6"/>
  <circle cx="155" cy="135" r="1" fill="#A3A4A6"/>
  <circle cx="155" cy="145" r="1" fill="#A3A4A6"/>
  <circle cx="155" cy="155" r="1" fill="#A3A4A6"/>
  <circle cx="155" cy="165" r="1" fill="#A3A4A6"/>
  <circle cx="155" cy="175" r="1" fill="#A3A4A6"/>
  <circle cx="155" cy="185" r="1" fill="#A3A4A6"/>
  <circle cx="155" cy="195" r="1" fill="#A3A4A6"/>
  <circle cx="165" cy="5" r="1" fill="#A3A4A6"/>
  <circle cx="165" cy="15" r="1" fill="#A3A4A6"/>
  <circle cx="165" cy="25" r="1" fill="#A3A4A6"/>
  <circle cx="165" cy="35" r="1" fill="#A3A4A6"/>
  <circle cx="165" cy="45" r="1" fill="#A3A4A6"/>
  <circle cx="165" cy="55" r="1" fill="#A3A4A6"/>
  <circle cx="165" cy="65" r="1" fill="#A3A4A6"/>
  <circle cx="165" cy="75" r="1" fill="#A3A4A6"/>
  <circle cx="165" cy="85" r="1" fill="#A3A4A6"/>
  <circle cx="165" cy="95" r="1" fill="#A3A4A6"/>
  <circle cx="165" cy="105" r="1" fill="#A3A4A6"/>
  <circle cx="165" cy="115" r="1" fill="#A3A4A6"/>
  <circle cx="165" cy="125" r="1" fill="#A3A4A6"/>
  <circle cx="165" cy="135" r="1" fill="#A3A4A6"/>
  <circle cx="165" cy="145" r="1" fill="#A3A4A6"/>
  <circle cx="165" cy="155" r="1" fill="#A3A4A6"/>
  <circle cx="165" cy="165" r="1" fill="#A3A4A6"/>
  <circle cx="165" cy="175" r="1" fill="#A3A4A6"/>
  <circle cx="165" cy="185" r="1" fill="#A3A4A6"/>
  <circle cx="165" cy="195" r="1" fill="#A3A4A6"/>
  <circle cx="175" cy="5" r="1" fill="#A3A4A6"/>
  <circle cx="175" cy="15" r="1" fill="#A3A4A6"/>
  <circle cx="175" cy="25" r="1" fill="#A3A4A6"/>
  <circle cx="175" cy="35" r="1" fill="#A3A4A6"/>
  <circle cx="175" cy="45" r="1" fill="#A3A4A6"/>
  <circle cx="175" cy="55" r="1" fill="#A3A4A6"/>
  <circle cx="175" cy="65" r="1" fill="#A3A4A6"/>
  <circle cx="175" cy="75" r="1" fill="#A3A4A6"/>
  <circle cx="175" cy="85" r="1" fill="#A3A4A6"/>
  <circle cx="175" cy="95" r="1" fill="#A3A4A6"/>
  <circle cx="175" cy="105" r="1" fill="#A3A4A6"/>
  <circle cx="175" cy="115" r="1" fill="#A3A4A6"/>
  <circle cx="175" cy="125" r="1" fill="#A3A4A6"/>
  <circle cx="175" cy="135" r="1" fill="#A3A4A6"/>
  <circle cx="175" cy="145" r="1" fill="#A3A4A6"/>
  <circle cx="175" cy="155" r="1" fill="#A3A4A6"/>
  <circle cx="175" cy="165" r="1" fill="#A3A4A6"/>
  <circle cx="175" cy="175" r="1" fill="#A3A4A6"/>
  <circle cx="175" cy="185" r="1" fill="#A3A4A6"/>
  <circle cx="175" cy="195" r="1" fill="#A3A4A6"/>
  <circle cx="185" cy="5" r="1" fill="#A3A4A6"/>
  <circle cx="185" cy="15" r="1" fill="#A3A4A6"/>
  <circle cx="185" cy="25" r="1" fill="#A3A4A6"/>
  <circle cx="185" cy="35" r="1" fill="#A3A4A6"/>
  <circle cx="185" cy="45" r="1" fill="#A3A4A6"/>
  <circle cx="185" cy="55" r="1" fill="#A3A4A6"/>
  <circle cx="185" cy="65" r="1" fill="#A3A4A6"/>
  <circle cx="185" cy="75" r="1" fill="#A3A4A6"/>
  <circle cx="185" cy="85" r="1" fill="#A3A4A6"/>
  <circle cx="185" cy="95" r="1" fill="#A3A4A6"/>
  <circle cx="185" cy="105" r="1" fill="#A3A4A6"/>
  <circle cx="185" cy="115" r="1" fill="#A3A4A6"/>
  <circle cx="185" cy="125" r="1" fill="#A3A4A6"/>
  <circle cx="185" cy="135" r="1" fill="#A3A4A6"/>
  <circle cx="185" cy="145" r="1" fill="#A3A4A6"/>
  <circle cx="185" cy="155" r="1" fill="#A3A4A6"/>
  <circle cx="185" cy="165" r="1" fill="#A3A4A6"/>
  <circle cx="185" cy="175" r="1" fill="#A3A4A6"/>
  <circle cx="185" cy="185" r="1" fill="#A3A4A6"/>
  <circle cx="185" cy="195" r="1" fill="#A3A4A6"/>
  <circle cx="195" cy="5" r="1" fill="#A3A4A6"/>
  <circle cx="195" cy="15" r="1" fill="#A3A4A6"/>
  <circle cx="195" cy="25" r="1" fill="#A3A4A6"/>
  <circle cx="195" cy="35" r="1" fill="#A3A4A6"/>
  <circle cx="195" cy="45" r="1" fill="#A3A4A6"/>
  <circle cx="195" cy="55" r="1" fill="#A3A4A6"/>
  <circle cx="195" cy="65" r="1" fill="#A3A4A6"/>
  <circle cx="195" cy="75" r="1" fill="#A3A4A6"/>
  <circle cx="195" cy="85" r="1" fill="#A3A4A6"/>
  <circle cx="195" cy="95" r="1" fill="#A3A4A6"/>
  <circle cx="195" cy="105" r="1" fill="#A3A4A6"/>
  <circle cx="195" cy="115" r="1" fill="#A3A4A6"/>
  <circle cx="195" cy="125" r="1" fill="#A3A4A6"/>
  <circle cx="195" cy="135" r="1" fill="#A3A4A6"/>
  <circle cx="195" cy="145" r="1" fill="#A3A4A6"/>
  <circle cx="195" cy="155" r="1" fill="#A3A4A6"/>
  <circle cx="195" cy="165" r="1" fill="#A3A4A6"/>
  <circle cx="195" cy="175" r="1" fill="#A3A4A6"/>
  <circle cx="195" cy="185" r="1" fill="#A3A4A6"/>
  <circle cx="195" cy="195" r="1" fill="#A3A4A6"/>
</svg>
